# xmcd CD database file
#
# Track frame offsets:
#	150
#	21124
#	40870
#	55515
#	69048
#	84435
#	106202
#	128165
#	142468
#	160568
#	174063
#	191578
#	211706
#	229273
#	242792
#	254963
#	271083
#	283253
#	293461
#	305955
#	324600
#
# Disc length: 4528 seconds
#
# Revision: 2
# Processed by: cddbd v1.5.2PL0 Copyright (c) Steve Scherf et al.
# Submitted via: CDex 1.70beta3
#
DISCID=2b11ae15
DTITLE=The Ahmad Jamal Trio - Chamber Music of The New Jazz(1955) and Standard Eyes(1961)
DYEAR=1955
DGENRE=Jazz
TTITLE0=New Rhumba
TTITLE1=A Foggy Day
TTITLE2=All of You
TTITLE3=It Ain't Necessarily So
TTITLE4=I Don't Wanna Be Kissed(By Anyone But You)
TTITLE5=I Get A Kick of You 
TTITLE6=Jeff
TTITLE7=Darn That Dream
TTITLE8=Spring is Here
TTITLE9=Billy Boy
TTITLE10=Sweet and Lovely
TTITLE11=I Didn't Know What Time It Was
TTITLE12=Taboo
TTITLE13=I'll Never Stop Loving You
TTITLE14=I'll Remember April
TTITLE15=So Beats My Heart For You
TTITLE16=For All We Know
TTITLE17=The Breeze And I
TTITLE18=Like Someone In Love
TTITLE19=Angel Eyes
TTITLE20=The Girl Next Door
EXTD=YEAR: 1955
EXTT0=
EXTT1=
EXTT2=
EXTT3=
EXTT4=
EXTT5=
EXTT6=
EXTT7=
EXTT8=
EXTT9=
EXTT10=
EXTT11=
EXTT12=
EXTT13=
EXTT14=
EXTT15=
EXTT16=
EXTT17=
EXTT18=
EXTT19=
EXTT20=
PLAYORDER=
